<svg width="1190px" height="841px" xmlns="http://www.w3.org/2000/svg" xmlns:xlink="http://www.w3.org/1999/xlink">
<g style="">  <path d="M573.606995,80.554094 C562.650994,80.554094,553.655994,88.542194,552.071995,98.945993 C551.632995,100.655393,551.343995,102.397193,551.343995,104.242393 C551.343995,112.260894,555.796995,119.172793,562.344995,122.896093 C542.720995,123.636393,519.042997,155.957994,517.033994,158.748995 L492.647995,157.845995 C492.647995,157.845995,486.877995,163.543995,475.303995,176.441995 C505.454994,194.939994,525.998995,225.957994,513.047994,282.049997 C508.487994,283.013997,505.073994,286.079997,505.073994,289.877997 C505.073994,293.636997,508.413994,296.676997,512.901994,297.676997 L508.245994,313.769997 L500.620994,313.769997 C492.705994,313.769997,486.274995,320.200997,486.274995,328.116997 C486.274995,332.275997,488.071995,335.974997,490.901994,338.592997 L489.271994,338.592997 C481.059995,338.592997,474.400994,347.359997,474.400994,358.177996 C474.400994,368.994997,481.060994,377.762995,489.271994,377.762995 L523.203994,377.529995 C523.267994,378.345995,523.523994,382.040996,523.523994,382.040996 C538.706993,517.171992,476.496993,611.618998,476.496993,611.618998 C476.496993,611.618998,468.795993,618.157998,460.519993,622.152999 C464.638993,639.037999,473.647993,661.825999,450.247993,685.797000 C441.851993,694.398000,427.885993,707.528001,423.997993,719.757998 C417.509993,740.170999,424.995993,761.972999,447.162994,770.742999 C447.879994,771.367999,448.684994,771.920999,449.548993,772.430999 L446.754994,772.430999 C431.822993,772.430999,419.690994,782.843999,419.690994,795.683000 C419.690994,805.469000,426.750994,813.815999,436.715994,817.246000 C440.947994,819.617999,445.984994,821.001000,451.411994,820.999999 L713.030006,820.999999 C727.948006,820.999999,740.065005,810.588000,740.065005,797.749000 C740.065005,788.211000,733.382005,780.032001,723.826005,776.447000 C720.567005,774.536000,716.778005,773.314000,712.710005,772.780000 C734.790005,763.988000,742.231005,742.211000,735.758005,721.823999 C731.874005,709.593999,717.925005,696.463998,709.538006,687.863000 C686.160006,663.891999,695.179006,641.104001,699.294006,624.218999 C691.026006,620.223999,683.318006,613.684999,683.318006,613.684999 C683.318006,613.684999,621.180005,519.238000,636.349004,384.106996 C636.349004,384.106996,636.605004,380.411996,636.669004,379.595996 L670.571004,379.828996 C678.775005,379.828996,685.413004,371.061995,685.413004,360.243997 C685.413004,349.425997,678.775004,340.658997,670.571004,340.658997 L668.942004,340.658997 C671.768004,338.040997,673.540004,334.341998,673.540004,330.182998 C673.540004,322.266998,667.130005,315.835997,659.222005,315.835997 L651.598005,315.835997 L646.941004,299.742997 C651.425005,298.743997,654.770004,295.702997,654.770004,291.943997 C654.769004,288.145997,651.351005,285.079997,646.796004,284.115997 C633.857004,228.023998,654.389004,197.005997,684.511005,178.507995 C672.947004,165.610995,667.196004,159.912996,667.196004,159.912996 L642.809005,160.814996 C640.786005,158.001996,616.783006,125.147397,597.091006,124.904096 C595.019006,124.878496,594.721007,124.798496,592.959006,124.758596 C600.751006,122.280096,606.646007,115.658696,607.888006,107.472597 C608.324006,105.771897,608.615006,104.012597,608.615006,102.176197 C608.615006,90.227996,598.833007,80.554096,586.760007,80.554096 L573.606995,80.554094 Z " stroke-linejoin="round" stroke-linecap="round" style="fill: rgba(0, 0, 0, 1.000000); stroke-width: 1.000000px; stroke: rgba(0, 0, 0, 1.000000); " fill="#000000" stroke="#000000" stroke-width="1.000000" />
</g></svg>