<svg width="1190px" height="841px" xmlns="http://www.w3.org/2000/svg" xmlns:xlink="http://www.w3.org/1999/xlink">
<g style="">  <path d="M575.312012,23.405760 L575.312012,52.187010 L547.719011,52.187010 L547.719011,77.030809 L575.312012,77.030809 L575.312012,88.968209 L564.875011,88.968209 C559.329011,88.968209,554.844011,94.964609,554.844011,102.343209 C554.844011,106.612509,556.439011,110.241209,558.781011,112.687009 C520.999010,116.817909,487.399008,127.536009,477.812010,138.218009 C491.946009,174.953010,506.097009,225.163009,522.062010,282.062003 C517.503010,283.026003,514.094010,286.076003,514.094010,289.874003 C514.094010,293.360003,517.005010,296.147003,521.000010,297.343003 C521.070010,298.449003,521.027010,299.147003,521.125010,300.374003 L517.250010,313.781002 L509.625010,313.781002 C501.709010,313.781002,495.281010,320.209002,495.281010,328.124003 C495.281010,332.284003,497.077010,335.975003,499.906010,338.593003 L498.281010,338.593003 C490.070009,338.593003,483.406010,347.369003,483.406010,358.187002 C483.406010,369.005002,490.070010,377.781002,498.281010,377.781002 L531.094010,377.531002 C531.126010,377.738002,531.562010,380.718002,531.562010,380.718002 C531.626010,381.531002,531.906010,385.218002,531.906010,385.218002 C547.023009,519.888000,484.875011,612.031006,484.875011,612.031006 C484.875011,612.031006,483.021011,613.525006,481.656011,614.624006 C481.135011,615.018006,481.246011,614.958006,480.625011,615.406006 C477.665011,617.540006,473.669011,620.158006,469.531011,622.156006 C469.562011,622.280006,469.594011,622.437006,469.625011,622.562006 C469.200011,622.784006,468.801011,623.075006,468.375011,623.281006 C471.133011,634.596005,476.241012,649.146006,472.344012,664.718006 C470.150012,671.568006,466.269012,678.622006,459.250012,685.812006 C450.854012,694.413006,436.888012,707.519007,433.000012,719.750006 C432.006012,722.876006,431.461012,726.047006,431.125012,729.187006 C428.421012,747.087006,436.384011,764.717005,455.562012,772.468004 C441.553012,772.566004,430.165013,781.830005,428.938011,793.624004 C428.809011,794.283004,428.749011,794.948004,428.688011,795.624004 C428.687011,795.646004,428.688011,795.666004,428.688011,795.687004 C428.635011,796.275004,428.531011,796.838004,428.531011,797.437004 C428.531011,810.232004,440.602011,820.624005,455.469011,820.624005 L455.781011,820.624005 C457.294011,820.852005,458.847011,820.999005,460.438011,821.000005 L722.030998,821.000005 C736.948998,820.999005,749.062998,810.589004,749.061998,797.750005 C749.062998,793.803005,747.892998,790.126004,745.874998,786.874004 C742.116998,778.737004,733.162998,772.950004,722.530998,772.374004 C743.932999,763.361005,751.168999,741.959003,744.780998,721.843006 C743.771999,718.666006,742.030998,715.421006,739.937999,712.218006 C734.108999,702.401006,724.005998,692.699007,717.343999,685.874006 C713.278999,681.711006,710.334999,677.658006,708.155999,673.687006 C704.871999,667.269006,703.560999,661.028005,703.280999,655.031006 C703.269999,654.248006,703.125999,653.429006,703.155999,652.656006 C703.155999,652.496006,703.185999,652.346006,703.187999,652.187006 C703.690999,642.013006,707.497999,632.710006,709.530999,624.374006 C701.413999,620.456006,691.686000,612.384006,691.374999,612.124006 C686.265999,604.049006,630.894999,513.125005,645.374999,384.124006 C645.374999,384.124006,645.623999,380.409006,645.687999,379.593006 C645.687999,379.593006,645.809999,378.674006,645.811999,378.656006 L678.469000,378.906006 C686.652000,378.906006,693.281001,370.155005,693.281001,359.374006 C693.281001,348.594006,686.652000,339.875006,678.469000,339.874006 L676.844000,339.874006 C679.664000,337.265006,681.469000,333.582006,681.469000,329.437006 C681.469000,321.548006,675.045000,315.124006,667.156001,315.124006 L659.562001,315.124006 L655.844001,302.281006 C655.949001,301.107006,656.103001,299.711006,656.188001,298.624006 C659.969001,297.368006,662.719001,294.674006,662.719001,291.312006 C662.719001,287.818006,659.770001,285.020006,655.750001,283.843006 C655.577001,283.082006,655.500001,282.296006,655.344001,281.531006 C671.013001,225.696007,684.965001,176.342003,698.874999,140.187012 C689.161999,129.364012,654.731998,118.488012,616.311996,114.530811 C619.826996,112.451411,622.280996,107.791412,622.280996,102.343211 C622.280996,94.964611,617.795995,88.968211,612.249995,88.968211 L603.030996,88.968211 L603.030996,77.030811 L630.249995,77.030811 L630.249995,52.187012 L603.030996,52.187012 L603.030996,23.405762 L575.312012,23.405760 Z " stroke-linejoin="round" stroke-linecap="round" style="fill: rgba(255, 255, 255, 1.000000); stroke-width: 10.000000px; stroke: rgba(0, 0, 0, 1.000000); " fill="#feffff" stroke="#000000" stroke-width="10.000000" />
</g></svg>