<svg width="1190px" height="841px" xmlns="http://www.w3.org/2000/svg" xmlns:xlink="http://www.w3.org/1999/xlink">
<g style="">  <path d="M500.976990,391.591003 L492.061990,399.518003 C500.952990,404.334003,504.657990,409.150003,513.549991,412.114003 C522.342991,415.045003,511.922991,410.809003,538.741990,405.445003 C557.265990,401.741003,541.335990,386.921003,570.973989,386.921003 C590.979989,388.033003,626.915990,375.066003,605.057988,412.484003 C553.722989,500.363000,508.732991,562.898996,483.608991,610.725000 L484.072991,610.957000 C503.916991,616.619000,518.562992,620.215000,518.563992,620.215000 L509.440992,634.072001 C531.233991,673.069002,521.977991,685.830999,502.817991,698.532000 C502.741991,698.552000,502.680992,698.574000,502.604991,698.594000 C487.657992,702.578000,478.930992,718.839001,479.295991,735.281999 C478.155991,750.344000,484.912992,765.416000,502.969991,772.249998 C498.840991,772.439998,495.001991,773.458998,491.588992,775.156998 C481.758992,778.607998,474.761992,787.203998,474.761992,797.281998 C474.761992,810.394998,486.560992,820.999998,501.113991,820.999998 L756.353997,820.999998 C761.867997,820.999998,766.971997,819.450998,771.202997,816.843998 C780.019997,813.032998,786.143997,805.063999,786.143997,795.718998 C786.143997,782.697998,774.357997,772.124998,759.791997,772.124998 L757.052997,772.124998 C762.157997,770.102998,766.409998,767.364998,769.833998,764.031998 C780.341998,755.088998,783.402998,741.839999,781.000997,729.249997 C779.538997,718.620997,774.291997,708.920996,766.212997,703.374997 C764.073997,701.542996,706.719997,685.111996,750.304997,634.071995 L732.526997,619.734995 C732.526997,619.733995,748.936997,618.292995,758.144997,612.895995 C764.689997,609.058995,776.492997,486.714995,770.993997,395.615996 C765.494997,304.516997,744.933998,266.813994,720.345999,226.917998 C697.919998,190.531997,634.943998,149.880996,623.940000,142.544997 C623.940000,142.544997,619.923000,144.291997,612.412000,150.579997 C609.012000,153.425997,606.430001,142.020997,602.631000,147.609997 C598.832000,153.199997,597.134000,158.848997,597.216000,172.936997 C597.364000,198.335997,588.308000,187.258996,576.546000,186.758996 C551.420001,185.688996,546.273000,225.485997,546.273000,225.485997 C527.999999,284.121999,505.636998,305.121999,486.817998,324.759000 C486.817998,324.759000,469.908997,331.850000,477.817998,392.395001 C496.908997,383.941001,508.306998,381.142001,500.976998,391.591001 Z " style="fill: rgba(255, 255, 255, 1.000000); stroke-width: 10.000000px; stroke: rgba(0, 0, 0, 1.000000); " fill="#feffff" stroke="#000000" stroke-width="10.000000" />
</g></svg>