<svg width="1190px" height="841px" xmlns="http://www.w3.org/2000/svg" xmlns:xlink="http://www.w3.org/1999/xlink">
<g style="">  <path d="M573.606995,80.554092 C562.650994,80.554092,553.655994,88.542192,552.071995,98.945992 C551.632995,100.655392,551.343995,102.397192,551.343995,104.242392 C551.343995,112.260892,555.796995,119.172791,562.344995,122.896091 C542.720995,123.636391,519.042997,155.957993,517.033994,158.748993 L492.647995,157.845993 C492.647995,157.845993,486.877995,163.543993,475.303995,176.441994 C505.454994,194.939993,525.998995,225.957992,513.047994,282.049995 C508.487994,283.013995,505.073994,286.079996,505.073994,289.877995 C505.073994,293.636995,508.413994,296.676995,512.901994,297.676995 L508.245994,313.769996 L500.620994,313.769996 C492.705994,313.769996,486.274995,320.200996,486.274995,328.116996 C486.274995,332.275996,488.071995,335.974995,490.901994,338.592996 L489.271994,338.592996 C481.059995,338.592996,474.400994,347.359996,474.400994,358.177995 C474.400994,368.994995,481.060994,377.762994,489.271994,377.762994 L523.203994,377.529994 C523.267994,378.345994,523.523994,382.040994,523.523994,382.040994 C538.706993,517.171991,476.496993,611.618997,476.496993,611.618997 C476.496993,611.618997,468.795993,618.157997,460.519993,622.152997 C464.638993,639.037997,473.647993,661.825998,450.247993,685.796998 C441.851993,694.397998,427.885993,707.527999,423.997993,719.757997 C417.509993,740.170997,424.995993,761.972997,447.162994,770.742997 C447.879994,771.367997,448.684994,771.920997,449.548993,772.430997 L446.754994,772.430997 C431.822993,772.430997,419.690994,782.843997,419.690994,795.682998 C419.690994,805.468998,426.750994,813.815998,436.715994,817.245998 C440.947994,819.617998,445.984994,821.000998,451.411994,820.999998 L713.030006,820.999998 C727.948006,820.999998,740.065005,810.587998,740.065005,797.748998 C740.065005,788.210998,733.382005,780.031999,723.826005,776.446998 C720.567005,774.535998,716.778005,773.313998,712.710005,772.779998 C734.790005,763.987998,742.231005,742.210998,735.758005,721.823997 C731.874005,709.593997,717.925005,696.463996,709.538006,687.862998 C686.160006,663.891998,695.179006,641.104000,699.294006,624.218997 C691.026006,620.223998,683.318006,613.684997,683.318006,613.684997 C683.318006,613.684997,621.180005,519.237998,636.349004,384.106994 C636.349004,384.106994,636.605004,380.411994,636.669004,379.595994 L670.571004,379.828994 C678.775005,379.828994,685.413004,371.061994,685.413004,360.243995 C685.413004,349.425995,678.775004,340.658996,670.571004,340.658996 L668.942004,340.658996 C671.768004,338.040996,673.540004,334.341996,673.540004,330.182996 C673.540004,322.266996,667.130005,315.835996,659.222005,315.835996 L651.598005,315.835996 L646.941004,299.742995 C651.425005,298.743995,654.770004,295.702995,654.770004,291.943996 C654.769004,288.145995,651.351005,285.079996,646.796004,284.115996 C633.857004,228.023996,654.389004,197.005995,684.511005,178.507994 C672.947004,165.610994,667.196004,159.912995,667.196004,159.912995 L642.809005,160.814995 C640.786005,158.001995,616.783006,125.147396,597.091006,124.904094 C595.019006,124.878494,594.721007,124.798494,592.959006,124.758594 C600.751006,122.280095,606.646007,115.658694,607.888006,107.472595 C608.324006,105.771895,608.615006,104.012595,608.615006,102.176195 C608.615006,90.227995,598.833007,80.554094,586.760007,80.554094 L573.606995,80.554092 Z " stroke-linejoin="round" stroke-linecap="round" style="fill: rgba(255, 255, 255, 1.000000); stroke-width: 10.000000px; stroke: rgba(0, 0, 0, 1.000000); " fill="#ffffff" stroke="#000000" stroke-width="10.000000" />
</g></svg>