<svg width="1190px" height="841px" xmlns="http://www.w3.org/2000/svg" xmlns:xlink="http://www.w3.org/1999/xlink">
<g style="">  <path d="M570.062012,136.374986 C568.286012,136.374986,564.680012,136.609686,564.680012,136.609686 C558.161012,136.609686,552.562012,145.560786,552.562012,154.937487 C552.563012,162.912987,556.377012,169.584987,561.531012,171.405987 C549.218012,181.488987,533.617012,196.155987,519.531012,215.249989 C503.889011,236.453989,484.609011,293.360989,534.531012,358.155995 L534.312012,358.155995 C530.336012,358.155995,527.125012,361.857994,527.125012,366.437994 C527.125012,371.016994,530.336012,374.718994,534.312012,374.718994 L535.781012,374.718994 C536.104012,382.974994,535.058012,389.561995,525.312012,389.561995 C522.419012,389.561995,520.420012,389.894995,519.062012,390.499995 C513.892012,391.862995,510.000011,396.370995,510.000011,401.968995 C510.000011,404.347995,510.843011,406.442995,512.031011,408.311995 C502.650012,408.875995,495.187011,416.570994,495.188011,426.093994 C495.187011,435.981994,503.205011,443.999994,513.094011,443.999994 L535.688011,443.999994 C548.366011,544.917994,500.969009,618.906000,500.969009,618.906000 C500.969009,618.906000,490.890009,625.696000,483.344009,634.500000 C487.374009,650.556999,493.839009,669.185001,464.969009,696.155998 C456.490009,704.076998,448.648010,714.899998,444.844009,726.530998 C438.454009,746.067999,442.282009,766.939999,463.906009,775.188000 L463.406009,775.188000 C451.800009,775.188000,442.065010,781.497000,438.531009,790.219000 C437.159009,792.892000,436.375010,795.816000,436.375010,798.906000 C436.375010,811.116000,448.233009,821.000000,462.844009,821.000000 L719.094009,821.000000 C733.705009,821.000000,745.531010,811.116000,745.531010,798.906000 C745.531010,798.638000,745.449010,798.391000,745.438010,798.125000 C745.450010,797.848000,745.531010,797.592000,745.531010,797.312000 C745.531010,785.408000,734.263010,775.760000,720.188009,775.281000 C723.142009,773.782000,724.249009,773.318000,728.937009,769.241000 C740.645009,759.060000,742.497009,741.495999,737.094008,724.937999 C733.298008,713.305999,725.461008,702.482999,717.000009,694.561999 C688.190009,667.590998,694.635009,648.963000,698.656009,632.906001 C691.126008,624.102001,681.094008,617.312001,681.094008,617.312001 C681.094008,617.313001,633.786010,543.324002,646.438010,442.405995 L668.969010,442.405995 C678.836010,442.405995,686.844010,434.387996,686.844010,424.499995 C686.844010,414.977995,679.392010,407.281995,670.031011,406.718995 C671.217011,404.849995,672.063011,402.753995,672.062011,400.374995 C672.062011,394.776995,668.190011,390.268995,663.031010,388.905995 C661.676010,388.300995,659.669010,387.968995,656.781010,387.968995 C647.056010,387.968995,646.021010,381.380995,646.344010,373.124995 L647.812010,373.124995 C651.781010,373.124995,654.969010,369.422995,654.969010,364.843995 C654.969010,360.263995,651.781010,356.561996,647.812010,356.561996 L647.594010,356.561996 C697.411012,291.766997,678.172009,234.859992,662.562011,213.655990 C648.507010,194.562989,632.944011,179.894988,620.656012,169.811988 C625.799012,167.990988,629.594012,161.319188,629.594012,153.343787 C629.594012,143.967087,624.349012,136.374988,617.844012,136.374988 L570.062012,136.374986 Z " stroke-linejoin="round" stroke-linecap="round" style="fill: rgba(0, 0, 0, 1.000000); stroke-width: 1.000000px; stroke: rgba(0, 0, 0, 1.000000); " fill="#000000" stroke="#000000" stroke-width="1.000000" />
</g></svg>