<svg width="1190px" height="841px" xmlns="http://www.w3.org/2000/svg" xmlns:xlink="http://www.w3.org/1999/xlink">
<g style="">  <path d="M575.312012,23.405755 L575.312012,52.187005 L547.719011,52.187005 L547.719011,77.030805 L575.312012,77.030805 L575.312012,88.968205 L564.875011,88.968205 C559.329011,88.968205,554.844011,94.964605,554.844011,102.343205 C554.844011,106.612505,556.439011,110.241204,558.781011,112.687004 C520.999010,116.817904,487.399008,127.536004,477.812010,138.218004 C491.946009,174.953005,506.097009,225.163004,522.062010,282.061999 C517.503010,283.025999,514.094010,286.075999,514.094010,289.873998 C514.094010,293.359998,517.005010,296.146998,521.000010,297.342998 C521.070010,298.448998,521.027010,299.146998,521.125010,300.373998 L517.250010,313.780998 L509.625010,313.780998 C501.709010,313.780998,495.281010,320.208998,495.281010,328.123998 C495.281010,332.283998,497.077010,335.974998,499.906010,338.592998 L498.281010,338.592998 C490.070009,338.592998,483.406010,347.368998,483.406010,358.186998 C483.406010,369.004998,490.070010,377.780998,498.281010,377.780998 L531.094010,377.530998 C531.126010,377.737998,531.562010,380.717998,531.562010,380.717998 C531.626010,381.530998,531.906010,385.217998,531.906010,385.217998 C547.023009,519.887996,484.875011,612.031001,484.875011,612.031001 C484.875011,612.031001,483.021011,613.525001,481.656011,614.624001 C481.135011,615.018001,481.246011,614.958001,480.625011,615.406001 C477.665011,617.540001,473.669011,620.158001,469.531011,622.156001 C469.562011,622.280001,469.594011,622.437001,469.625011,622.562001 C469.200011,622.784001,468.801011,623.075001,468.375011,623.281001 C471.133011,634.596001,476.241012,649.146001,472.344012,664.718002 C470.150012,671.568001,466.269012,678.622002,459.250012,685.812001 C450.854012,694.413001,436.888012,707.519002,433.000012,719.750001 C432.006012,722.876001,431.461012,726.047001,431.125012,729.187001 C428.421012,747.087001,436.384011,764.717000,455.562012,772.468000 C441.553012,772.566000,430.165013,781.830000,428.938011,793.624000 C428.809011,794.283000,428.749011,794.948000,428.688011,795.624000 C428.687011,795.646000,428.688011,795.666000,428.688011,795.687000 C428.635011,796.275000,428.531011,796.838000,428.531011,797.437000 C428.531011,810.232000,440.602011,820.624000,455.469011,820.624000 L455.781011,820.624000 C457.294011,820.852000,458.847011,820.999000,460.438011,821.000000 L722.030998,821.000000 C736.948998,820.999000,749.062998,810.589000,749.061998,797.750000 C749.062998,793.803000,747.892998,790.126000,745.874998,786.874000 C742.116998,778.737000,733.162998,772.950000,722.530998,772.374000 C743.932999,763.361000,751.168999,741.958999,744.780998,721.843001 C743.771999,718.666001,742.030998,715.421001,739.937999,712.218001 C734.108999,702.401001,724.005998,692.699002,717.343999,685.874002 C713.278999,681.711001,710.334999,677.658002,708.155999,673.687001 C704.871999,667.269001,703.560999,661.028001,703.280999,655.031001 C703.269999,654.248001,703.125999,653.429001,703.155999,652.656001 C703.155999,652.496001,703.185999,652.346001,703.187999,652.187001 C703.690999,642.013001,707.497999,632.710002,709.530999,624.374001 C701.413999,620.456001,691.686000,612.384002,691.374999,612.124001 C686.265999,604.049002,630.894999,513.125001,645.374999,384.124001 C645.374999,384.124001,645.623999,380.409001,645.687999,379.593001 C645.687999,379.593001,645.809999,378.674001,645.811999,378.656001 L678.469000,378.906001 C686.652000,378.906001,693.281001,370.155001,693.281001,359.374002 C693.281001,348.594002,686.652000,339.875001,678.469000,339.874002 L676.844000,339.874002 C679.664000,337.265002,681.469000,333.582002,681.469000,329.437001 C681.469000,321.548001,675.045000,315.124002,667.156001,315.124002 L659.562001,315.124002 L655.844001,302.281001 C655.949001,301.107001,656.103001,299.711001,656.188001,298.624001 C659.969001,297.368001,662.719001,294.674001,662.719001,291.312001 C662.719001,287.818001,659.770001,285.020002,655.750001,283.843002 C655.577001,283.082002,655.500001,282.296001,655.344001,281.531001 C671.013001,225.696002,684.965001,176.341998,698.874999,140.187007 C689.161999,129.364007,654.731998,118.488008,616.311996,114.530807 C619.826996,112.451407,622.280996,107.791407,622.280996,102.343207 C622.280996,94.964607,617.795995,88.968207,612.249995,88.968207 L603.030996,88.968207 L603.030996,77.030807 L630.249995,77.030807 L630.249995,52.187007 L603.030996,52.187007 L603.030996,23.405757 L575.312012,23.405755 Z " stroke-linejoin="round" stroke-linecap="round" style="fill: rgba(0, 0, 0, 1.000000); stroke-width: 1.000000px; stroke: rgba(0, 0, 0, 1.000000); " fill="#000000" stroke="#000000" stroke-width="1.000000" />
</g></svg>