<svg width="1190px" height="841px" xmlns="http://www.w3.org/2000/svg" xmlns:xlink="http://www.w3.org/1999/xlink">
<g style="">  <path d="M576.218994,343.812012 C575.293994,343.837012,574.481994,344.040012,573.624994,344.188012 C526.692995,343.891012,484.055994,371.035012,486.655992,426.375008 C488.867992,473.454007,516.702993,505.166009,530.749994,518.281006 L496.437994,539.688006 C495.460994,540.145006,494.543994,540.738006,493.687994,541.406006 L493.311994,541.625006 L493.437994,541.625006 C489.756994,544.630006,487.343994,549.436006,487.343994,554.906006 C487.343994,564.026006,493.994994,571.406006,502.187994,571.406006 L527.655994,571.406006 C526.538994,599.600006,525.359994,618.822007,506.905994,649.531006 C504.938994,652.805006,484.843994,661.875006,484.843994,661.875006 L487.718994,662.156006 L484.937994,662.125006 C484.937994,662.125006,493.753994,689.592005,456.655994,700.281004 C429.912994,707.987004,424.444996,761.603003,460.405994,773.625006 C474.415995,773.033006,493.280994,773.329006,512.624996,773.844006 L456.249996,773.844006 C442.734996,773.844006,431.780996,784.416006,431.780996,797.438006 C431.780996,810.459006,442.734997,821.000006,456.249996,821.000006 L693.281002,821.000006 C706.796002,821.000006,717.750002,810.459006,717.750002,797.438006 C717.750002,784.416006,706.796001,773.844006,693.281002,773.844006 L639.719002,773.844006 C658.776001,773.350006,677.280003,773.106006,691.094002,773.688006 C727.164001,761.665006,721.699001,708.018008,694.875002,700.312007 C657.665003,689.623006,666.500002,662.187007,666.500002,662.188006 L664.719002,662.188006 L666.500002,662.031006 C666.500002,662.031006,646.491001,652.966006,644.531002,649.688006 C626.146002,618.918005,624.988003,599.663004,623.875002,571.406008 L645.875002,571.406008 C654.067002,571.406008,660.688001,564.026008,660.688001,554.906008 C660.687001,549.436008,658.274001,544.630008,654.594002,541.625008 L654.719002,541.625008 L654.344002,541.406008 C653.487002,540.738008,652.570001,540.145008,651.594002,539.688008 L616.562000,517.844008 C624.656000,511.550008,662.750000,479.412009,665.406002,424.062010 C668.044002,369.103011,623.976002,342.571013,576.219005,343.812010 Z " stroke-linejoin="round" stroke-linecap="round" style="fill: rgba(255, 255, 255, 1.000000); stroke-width: 10.000000px; stroke: rgba(0, 0, 0, 1.000000); " fill="#feffff" stroke="#000000" stroke-width="10.000000" />
</g></svg>