<svg width="1190px" height="841px" xmlns="http://www.w3.org/2000/svg" xmlns:xlink="http://www.w3.org/1999/xlink">
<g style="">  <path d="M570.062012,136.374985 C568.286012,136.374985,564.680012,136.609685,564.680012,136.609685 C558.161012,136.609685,552.562012,145.560785,552.562012,154.937485 C552.563012,162.912986,556.377012,169.584986,561.531012,171.405986 C549.218012,181.488986,533.617012,196.155986,519.531012,215.249987 C503.889011,236.453988,484.609011,293.360987,534.531012,358.155993 L534.312012,358.155993 C530.336012,358.155993,527.125012,361.857993,527.125012,366.437993 C527.125012,371.016993,530.336012,374.718993,534.312012,374.718993 L535.781012,374.718993 C536.104012,382.974993,535.058012,389.561993,525.312012,389.561993 C522.419012,389.561993,520.420012,389.894993,519.062012,390.499993 C513.892012,391.862993,510.000011,396.370993,510.000011,401.968993 C510.000011,404.347993,510.843011,406.442993,512.031011,408.311993 C502.650012,408.875993,495.187011,416.570993,495.188011,426.093993 C495.187011,435.981992,503.205011,443.999993,513.094011,443.999993 L535.688011,443.999993 C548.366011,544.917992,500.969009,618.905999,500.969009,618.905999 C500.969009,618.905999,490.890009,625.695999,483.344009,634.499999 C487.374009,650.556998,493.839009,669.185000,464.969009,696.155997 C456.490009,704.076997,448.648010,714.899996,444.844009,726.530997 C438.454009,746.067998,442.282009,766.939997,463.906009,775.187998 L463.406009,775.187998 C451.800009,775.187998,442.065010,781.496998,438.531009,790.218999 C437.159009,792.891999,436.375010,795.815999,436.375010,798.905999 C436.375010,811.115999,448.233009,820.999999,462.844009,820.999999 L719.094009,820.999999 C733.705009,820.999999,745.531010,811.115999,745.531010,798.905999 C745.531010,798.637999,745.449010,798.390999,745.438010,798.124999 C745.450010,797.847999,745.531010,797.591999,745.531010,797.311999 C745.531010,785.407998,734.263010,775.759999,720.188009,775.280999 C723.142009,773.781999,724.249009,773.317999,728.937009,769.240999 C740.645009,759.059999,742.497009,741.495998,737.094008,724.937997 C733.298008,713.305997,725.461008,702.482997,717.000009,694.561998 C688.190009,667.590997,694.635009,648.962999,698.656009,632.906000 C691.126008,624.102000,681.094008,617.312000,681.094008,617.312000 C681.094008,617.313000,633.786010,543.324001,646.438010,442.405994 L668.969010,442.405994 C678.836010,442.405994,686.844010,434.387994,686.844010,424.499994 C686.844010,414.977993,679.392010,407.281993,670.031011,406.718994 C671.217011,404.849994,672.063011,402.753994,672.062011,400.374994 C672.062011,394.776994,668.190011,390.268994,663.031010,388.905994 C661.676010,388.300994,659.669010,387.968994,656.781010,387.968994 C647.056010,387.968994,646.021010,381.380994,646.344010,373.124994 L647.812010,373.124994 C651.781010,373.124994,654.969010,369.422994,654.969010,364.843994 C654.969010,360.263994,651.781010,356.561994,647.812010,356.561994 L647.594010,356.561994 C697.411012,291.766996,678.172009,234.859991,662.562011,213.655988 C648.507010,194.562988,632.944011,179.894987,620.656012,169.811987 C625.799012,167.990987,629.594012,161.319187,629.594012,153.343786 C629.594012,143.967086,624.349012,136.374986,617.844012,136.374986 L570.062012,136.374985 Z " stroke-linejoin="round" stroke-linecap="round" style="fill: rgba(255, 255, 255, 1.000000); stroke-width: 10.000000px; stroke: rgba(0, 0, 0, 1.000000); " fill="#feffff" stroke="#000000" stroke-width="10.000000" />
</g></svg>