<svg width="1190px" height="841px" xmlns="http://www.w3.org/2000/svg" xmlns:xlink="http://www.w3.org/1999/xlink">
<g style="">  <path d="M485.250000,231.719006 C476.087000,231.719006,468.656000,239.232006,468.656000,248.500006 L468.656000,325.469008 C468.656000,333.543008,474.301000,340.272008,481.812000,341.875008 C474.016000,345.641008,468.719000,352.475009,468.719000,360.375008 C468.719000,371.229008,478.625000,380.126008,491.469000,381.656008 C485.787000,383.399008,481.781000,387.495009,481.781000,392.250008 C481.781000,398.590008,488.882000,403.719008,497.625000,403.719008 L499.469000,403.719008 C518.629000,525.998007,476.000000,617.313002,476.000000,617.313002 L455.531000,633.532002 C455.531000,633.532002,466.521000,685.831002,446.844000,698.532002 C446.766000,698.552002,446.704000,698.574002,446.625000,698.594002 C431.275000,702.578002,422.313000,718.839003,422.688000,735.282002 C421.517000,750.344002,428.456000,765.416003,447.000000,772.250000 C442.760000,772.440000,438.817000,773.459000,435.312000,775.156000 C425.217000,778.608000,418.031000,787.204000,418.031000,797.282000 C418.031000,810.395000,430.148000,821.000000,445.094000,821.000000 L707.219000,821.000000 C712.882000,821.000000,718.124000,819.451000,722.469000,816.844000 C731.523000,813.033000,737.813000,805.064000,737.812000,795.719000 C737.813000,782.697000,725.709001,772.125000,710.750000,772.125000 L707.938000,772.125000 C713.179000,770.103000,717.546000,767.365000,721.062000,764.032000 C731.855000,755.089000,734.997000,741.840000,732.530999,729.249998 C731.029999,718.620998,725.641999,708.920998,717.343999,703.374998 C715.147999,701.542998,712.831999,699.863998,710.280999,698.562998 C688.689000,687.543998,700.280999,633.124995,700.280999,633.124995 L679.780999,617.031994 C679.780999,617.030994,636.962998,525.959996,656.437999,404.155987 C656.464999,403.984987,656.269999,403.862987,656.155999,403.718987 L656.999998,403.718987 C665.742999,403.718987,672.811999,398.589987,672.811999,392.249987 C672.812999,387.514987,668.862999,383.442987,663.218998,381.687987 C676.242999,380.286987,686.343998,371.332988,686.343998,360.374987 C686.343998,352.483988,681.062998,345.643987,673.280999,341.874987 C680.807999,340.283987,686.468998,333.553987,686.468998,325.468987 L686.468998,248.499985 C686.468998,239.231986,679.037998,231.718985,669.874998,231.718985 L634.719000,231.718985 L634.719000,260.218985 C634.719000,264.847986,633.324000,268.593985,631.594000,268.593985 L619.250000,268.593985 C617.519000,268.593985,616.125000,264.847985,616.125000,260.218985 L616.125000,231.718985 L537.844002,231.718985 L537.844002,259.874985 C537.844002,264.503986,536.449002,268.249985,534.719002,268.249985 L522.406002,268.249985 C520.676002,268.249985,519.281002,264.503985,519.281002,259.874985 L519.281002,231.718985 L485.250000,231.719006 Z " style="fill: rgba(0, 0, 0, 1.000000); stroke-width: 0.000000px; stroke: rgba(0, 0, 0, 1.000000); " fill="#000000" stroke="#000000" stroke-width="0.000000" />
</g></svg>