<svg width="1190px" height="841px" xmlns="http://www.w3.org/2000/svg" xmlns:xlink="http://www.w3.org/1999/xlink">
<g style="">  <path d="M500.976990,391.591005 L492.061990,399.518005 C500.952990,404.334005,504.657990,409.150005,513.549991,412.114005 C522.342991,415.045005,511.922991,410.809005,538.741990,405.445005 C557.265990,401.741005,541.335990,386.921004,570.973989,386.921004 C590.979989,388.033004,626.915990,375.066005,605.057988,412.484004 C553.722989,500.363002,508.732991,562.898997,483.608991,610.725001 L484.072991,610.957001 C503.916991,616.619002,518.562992,620.215002,518.563992,620.215002 L509.440992,634.072002 C531.233991,673.069004,521.977991,685.831001,502.817991,698.532001 C502.741991,698.552001,502.680992,698.574001,502.604991,698.594001 C487.657992,702.578001,478.930992,718.839002,479.295991,735.282001 C478.155991,750.344001,484.912992,765.416002,502.969991,772.250000 C498.840991,772.440000,495.001991,773.459000,491.588992,775.157000 C481.758992,778.608000,474.761992,787.204000,474.761992,797.282000 C474.761992,810.395000,486.560992,821.000000,501.113991,821.000000 L756.353997,821.000000 C761.867997,821.000000,766.971997,819.451000,771.202997,816.844000 C780.019997,813.033000,786.143997,805.064000,786.143997,795.719000 C786.143997,782.698000,774.357997,772.125000,759.791997,772.125000 L757.052997,772.125000 C762.157997,770.103000,766.409998,767.365000,769.833998,764.032000 C780.341998,755.089000,783.402998,741.840000,781.000997,729.249998 C779.538997,718.620998,774.291997,708.920998,766.212997,703.374998 C764.073997,701.542998,706.719997,685.111998,750.304997,634.071997 L732.526997,619.734997 C732.526997,619.733997,748.936997,618.292997,758.144997,612.895997 C764.689997,609.058997,776.492997,486.714997,770.993997,395.615998 C765.494997,304.516999,744.933998,266.813996,720.345999,226.918000 C697.919998,190.531998,634.943998,149.880997,623.940000,142.544999 C623.940000,142.544999,619.923000,144.291999,612.412000,150.579998 C609.012000,153.425998,606.430001,142.020998,602.631000,147.609998 C598.832000,153.199999,597.134000,158.848999,597.216000,172.936998 C597.364000,198.335998,588.308000,187.258998,576.546000,186.758998 C551.420001,185.688998,546.273000,225.485999,546.273000,225.485999 C527.999999,284.122000,505.636998,305.122000,486.817998,324.759001 C486.817998,324.759001,469.908997,331.850002,477.817998,392.395003 C496.908997,383.941003,508.306998,381.142003,500.976998,391.591003 Z " style="fill: rgba(0, 0, 0, 1.000000); stroke-width: 0.000000px; stroke: rgba(0, 0, 0, 1.000000); " fill="#000000" stroke="#000000" stroke-width="0.000000" />
</g></svg>