<svg width="1190px" height="841px" xmlns="http://www.w3.org/2000/svg" xmlns:xlink="http://www.w3.org/1999/xlink">
<g style="">  <path d="M576.218994,343.812006 C575.293994,343.837006,574.481994,344.040006,573.624994,344.188006 C526.692995,343.891006,484.055994,371.035006,486.655992,426.375002 C488.867992,473.454001,516.702993,505.166002,530.749994,518.281000 L496.437994,539.688000 C495.460994,540.145000,494.543994,540.738000,493.687994,541.406000 L493.311994,541.625000 L493.437994,541.625000 C489.756994,544.630000,487.343994,549.436000,487.343994,554.906000 C487.343994,564.026000,493.994994,571.406000,502.187994,571.406000 L527.655994,571.406000 C526.538994,599.600000,525.359994,618.822000,506.905994,649.531000 C504.938994,652.805000,484.843994,661.875000,484.843994,661.875000 L487.718994,662.156000 L484.937994,662.125000 C484.937994,662.125000,493.753994,689.591999,456.655994,700.280998 C429.912994,707.986998,424.444996,761.602997,460.405994,773.625000 C474.415995,773.033000,493.280994,773.329000,512.624996,773.844000 L456.249996,773.844000 C442.734996,773.844000,431.780996,784.415999,431.780996,797.438000 C431.780996,810.459000,442.734997,821.000000,456.249996,821.000000 L693.281002,821.000000 C706.796002,821.000000,717.750002,810.459000,717.750002,797.438000 C717.750002,784.415999,706.796001,773.844000,693.281002,773.844000 L639.719002,773.844000 C658.776001,773.350000,677.280003,773.106000,691.094002,773.688000 C727.164001,761.665000,721.699001,708.018002,694.875002,700.312000 C657.665003,689.623000,666.500002,662.187000,666.500002,662.188000 L664.719002,662.188000 L666.500002,662.031000 C666.500002,662.031000,646.491001,652.966000,644.531002,649.687999 C626.146002,618.917999,624.988003,599.662998,623.875002,571.406002 L645.875002,571.406002 C654.067002,571.406002,660.688001,564.026002,660.688001,554.906002 C660.687001,549.436002,658.274001,544.630002,654.594002,541.625002 L654.719002,541.625002 L654.344002,541.406002 C653.487002,540.738002,652.570001,540.145002,651.594002,539.688002 L616.562000,517.844002 C624.656000,511.550002,662.750000,479.412003,665.406002,424.062004 C668.044002,369.103004,623.976002,342.571007,576.219005,343.812004 Z " stroke-linejoin="round" stroke-linecap="round" style="fill: rgba(0, 0, 0, 1.000000); stroke-width: 1.000000px; stroke: rgba(0, 0, 0, 1.000000); " fill="#000000" stroke="#000000" stroke-width="1.000000" />
</g></svg>