<svg width="1190px" height="841px" xmlns="http://www.w3.org/2000/svg" xmlns:xlink="http://www.w3.org/1999/xlink">
<g style="">  <path d="M485.250000,231.719009 C476.087000,231.719009,468.656000,239.232009,468.656000,248.500010 L468.656000,325.469011 C468.656000,333.543012,474.301000,340.272012,481.812000,341.875011 C474.016000,345.641011,468.719000,352.475012,468.719000,360.375011 C468.719000,371.229012,478.625000,380.126011,491.469000,381.656012 C485.787000,383.399012,481.781000,387.495012,481.781000,392.250011 C481.781000,398.590012,488.882000,403.719011,497.625000,403.719011 L499.469000,403.719011 C518.629000,525.998011,476.000000,617.313005,476.000000,617.313005 L455.531000,633.532005 C455.531000,633.532005,466.521000,685.831005,446.844000,698.532005 C446.766000,698.552005,446.704000,698.574005,446.625000,698.594005 C431.275000,702.578005,422.313000,718.839006,422.688000,735.282005 C421.517000,750.344005,428.456000,765.416006,447.000000,772.250004 C442.760000,772.440004,438.817000,773.459004,435.312000,775.156003 C425.217000,778.608003,418.031000,787.204004,418.031000,797.282003 C418.031000,810.395003,430.148000,821.000003,445.094000,821.000003 L707.219000,821.000003 C712.882000,821.000003,718.124000,819.451003,722.469000,816.844003 C731.523000,813.033003,737.813000,805.064003,737.812000,795.719003 C737.813000,782.697003,725.709001,772.125003,710.750000,772.125003 L707.938000,772.125003 C713.179000,770.103003,717.546000,767.365003,721.062000,764.032003 C731.855000,755.089003,734.997000,741.840003,732.530999,729.250001 C731.029999,718.621002,725.641999,708.921001,717.343999,703.375001 C715.147999,701.543001,712.831999,699.864001,710.280999,698.563002 C688.689000,687.544002,700.280999,633.124998,700.280999,633.124998 L679.780999,617.031998 C679.780999,617.030998,636.962998,525.959999,656.437999,404.155991 C656.464999,403.984991,656.269999,403.862991,656.155999,403.718991 L656.999998,403.718991 C665.742999,403.718991,672.811999,398.589990,672.811999,392.249991 C672.812999,387.514991,668.862999,383.442991,663.218998,381.687990 C676.242999,380.286990,686.343998,371.332991,686.343998,360.374991 C686.343998,352.483991,681.062998,345.643991,673.280999,341.874991 C680.807999,340.283991,686.468998,333.553991,686.468998,325.468991 L686.468998,248.499989 C686.468998,239.231989,679.037998,231.718989,669.874998,231.718989 L634.719000,231.718989 L634.719000,260.218989 C634.719000,264.847989,633.324000,268.593989,631.594000,268.593989 L619.250000,268.593989 C617.519000,268.593989,616.125000,264.847989,616.125000,260.218989 L616.125000,231.718989 L537.844002,231.718989 L537.844002,259.874989 C537.844002,264.503989,536.449002,268.249989,534.719002,268.249989 L522.406002,268.249989 C520.676002,268.249989,519.281002,264.503989,519.281002,259.874989 L519.281002,231.718989 L485.250000,231.719009 Z " style="fill: rgba(255, 255, 255, 1.000000); stroke-width: 10.000000px; stroke: rgba(0, 0, 0, 1.000000); " fill="#feffff" stroke="#000000" stroke-width="10.000000" />
</g></svg>